<svg width="200" height="40" viewBox="0 0 200 40" fill="none" xmlns="http://www.w3.org/2000/svg">
  <defs>
    <linearGradient id="guard-grad" x1="0" y1="0" x2="1" y2="1">
      <stop offset="0%" stop-color="#ef4444"/>
      <stop offset="100%" stop-color="#dc2626"/>
    </linearGradient>
    <linearGradient id="guard-icon" x1="0" y1="0" x2="1" y2="1">
      <stop offset="0%" stop-color="#ef4444"/>
      <stop offset="100%" stop-color="#7f1d1d"/>
    </linearGradient>
    <radialGradient id="guard-glow" cx="50%" cy="50%" r="50%">
      <stop offset="0%" stop-color="#ef4444" stop-opacity="0.4"/>
      <stop offset="100%" stop-color="#ef4444" stop-opacity="0"/>
    </radialGradient>
  </defs>
  <!-- Glow circle behind shield -->
  <circle cx="20" cy="20" r="18" fill="url(#guard-glow)"/>
  <!-- Shield -->
  <path d="M20 4L34 10V22C34 29 27.5 34.5 20 37C12.5 34.5 6 29 6 22V10L20 4Z" fill="url(#guard-icon)"/>
  <path d="M20 8L31 13V22C31 27.5 25.5 32 20 34C14.5 32 9 27.5 9 22V13L20 8Z" fill="none" stroke="rgba(255,100,100,0.3)" stroke-width="1"/>
  <!-- Eye in shield -->
  <ellipse cx="20" cy="20" rx="7" ry="4.5" fill="none" stroke="white" stroke-width="1.5" stroke-opacity="0.9"/>
  <circle cx="20" cy="20" r="2.5" fill="white" fill-opacity="0.95"/>
  <circle cx="20" cy="20" r="1" fill="url(#guard-icon)"/>
  <!-- Text -->
  <text x="42" y="26" font-family="'Plus Jakarta Sans', Inter, system-ui, sans-serif" font-size="22" font-weight="800" fill="white" letter-spacing="-0.5">AIB</text>
  <text x="83" y="26" font-family="'Plus Jakarta Sans', Inter, system-ui, sans-serif" font-size="22" font-weight="800" fill="url(#guard-grad)" letter-spacing="-0.5">guardian</text>
</svg>
