<svg width="1200" height="630" viewBox="0 0 1200 630" fill="none" xmlns="http://www.w3.org/2000/svg">
  <defs>
    <linearGradient id="bg" x1="0" y1="0" x2="1200" y2="630" gradientUnits="userSpaceOnUse">
      <stop offset="0%" stop-color="#0a0000"/>
      <stop offset="50%" stop-color="#1a0505"/>
      <stop offset="100%" stop-color="#0f0a0a"/>
    </linearGradient>
    <radialGradient id="glow1" cx="30%" cy="35%" r="50%">
      <stop offset="0%" stop-color="#ef4444" stop-opacity="0.3"/>
      <stop offset="100%" stop-color="#ef4444" stop-opacity="0"/>
    </radialGradient>
    <radialGradient id="glow2" cx="75%" cy="65%" r="40%">
      <stop offset="0%" stop-color="#dc2626" stop-opacity="0.2"/>
      <stop offset="100%" stop-color="#dc2626" stop-opacity="0"/>
    </radialGradient>
    <linearGradient id="title-grad" x1="0" y1="0" x2="700" y2="0" gradientUnits="userSpaceOnUse">
      <stop offset="0%" stop-color="#ef4444"/>
      <stop offset="100%" stop-color="#fca5a5"/>
    </linearGradient>
  </defs>
  <rect width="1200" height="630" fill="url(#bg)"/>
  <circle cx="360" cy="220" r="300" fill="url(#glow1)"/>
  <circle cx="900" cy="410" r="240" fill="url(#glow2)"/>
  <!-- Grid -->
  <g opacity="0.05" stroke="white" stroke-width="1">
    <line x1="0" y1="105" x2="1200" y2="105"/><line x1="0" y1="210" x2="1200" y2="210"/>
    <line x1="0" y1="315" x2="1200" y2="315"/><line x1="0" y1="420" x2="1200" y2="420"/>
    <line x1="0" y1="525" x2="1200" y2="525"/>
    <line x1="150" y1="0" x2="150" y2="630"/><line x1="300" y1="0" x2="300" y2="630"/>
    <line x1="450" y1="0" x2="450" y2="630"/><line x1="600" y1="0" x2="600" y2="630"/>
    <line x1="750" y1="0" x2="750" y2="630"/><line x1="900" y1="0" x2="900" y2="630"/>
    <line x1="1050" y1="0" x2="1050" y2="630"/>
  </g>
  <!-- Shield with eye -->
  <path d="M80 318L120 295V248L80 225L40 248V295L80 318Z" fill="#ef4444" opacity="0.9"/>
  <ellipse cx="80" cy="271" rx="24" ry="15" fill="none" stroke="white" stroke-width="2" opacity="0.9"/>
  <circle cx="80" cy="271" r="8" fill="white" opacity="0.95"/>
  <circle cx="80" cy="271" r="4" fill="#ef4444"/>
  <!-- Text -->
  <text x="148" y="258" font-family="'Plus Jakarta Sans', Inter, sans-serif" font-size="72" font-weight="800" fill="white" letter-spacing="-2">AIB</text>
  <text x="290" y="258" font-family="'Plus Jakarta Sans', Inter, sans-serif" font-size="72" font-weight="800" fill="url(#title-grad)" letter-spacing="-2">guardian</text>
  <text x="80" y="318" font-family="'Plus Jakarta Sans', Inter, sans-serif" font-size="30" font-weight="500" fill="#fca5a5">Real-Time AI Safety Engine · Fail-Closed · Dual-Model Audit</text>
  <!-- Verdict badges -->
  <rect x="80" y="398" width="130" height="48" rx="12" fill="rgba(16,185,129,0.15)" stroke="rgba(16,185,129,0.4)" stroke-width="1.5"/>
  <text x="145" y="428" font-family="Inter, sans-serif" font-size="18" font-weight="700" fill="#6ee7b7" text-anchor="middle">PASS</text>
  <rect x="230" y="398" width="140" height="48" rx="12" fill="rgba(234,179,8,0.15)" stroke="rgba(234,179,8,0.4)" stroke-width="1.5"/>
  <text x="300" y="428" font-family="Inter, sans-serif" font-size="18" font-weight="700" fill="#fde047" text-anchor="middle">ALERT</text>
  <rect x="390" y="398" width="165" height="48" rx="12" fill="rgba(239,68,68,0.2)" stroke="rgba(239,68,68,0.5)" stroke-width="1.5"/>
  <text x="472" y="428" font-family="Inter, sans-serif" font-size="18" font-weight="700" fill="#fca5a5" text-anchor="middle">CRITICAL</text>
  <rect x="575" y="398" width="200" height="48" rx="12" fill="rgba(239,68,68,0.1)" stroke="rgba(239,68,68,0.3)" stroke-width="1.5"/>
  <text x="675" y="428" font-family="Inter, sans-serif" font-size="16" font-weight="600" fill="#fca5a5" text-anchor="middle">FAIL CLOSED</text>
  <text x="1120" y="590" font-family="Inter, sans-serif" font-size="20" font-weight="500" fill="rgba(255,255,255,0.3)" text-anchor="end">aibguardian.info</text>
</svg>
